<?xml version="1.0" standalone="no"?>
<!DOCTYPE svg PUBLIC "-//W3C//DTD SVG 20010904//EN"
 "http://www.w3.org/TR/2001/REC-SVG-20010904/DTD/svg10.dtd">
<svg version="1.0" xmlns="http://www.w3.org/2000/svg"
 width="794.000000pt" height="794.000000pt" viewBox="0 0 794.000000 794.000000"
 preserveAspectRatio="xMidYMid meet">
<metadata>
Created by potrace 1.14, written by Peter Selinger 2001-2017
</metadata>
<g transform="translate(0.000000,794.000000) scale(0.100000,-0.100000)"
fill="#000000" stroke="none">
<path d="M5143 7864 c-48 -24 -66 -49 -70 -101 -3 -35 1 -55 14 -74 67 -96 99
-150 119 -200 23 -57 54 -206 54 -258 0 -24 -4 -22 -47 29 -202 237 -464 379
-838 455 -396 80 -831 53 -1289 -80 -241 -70 -416 -139 -764 -301 -434 -203
-539 -239 -730 -254 -95 -7 -106 -10 -133 -36 -16 -15 -35 -45 -41 -66 -15
-50 10 -116 57 -153 41 -31 138 -69 222 -86 l60 -12 -77 -102 c-42 -56 -94
-131 -114 -168 -77 -137 -141 -324 -166 -482 -13 -84 -14 -477 -1 -590 30
-259 99 -536 202 -817 21 -60 39 -110 39 -112 0 -2 -44 -25 -97 -52 -157 -78
-266 -209 -321 -387 -22 -70 -25 -102 -26 -217 -1 -116 2 -144 22 -198 52
-145 144 -281 248 -365 69 -56 196 -119 272 -136 72 -15 194 -13 266 4 33 8
63 12 67 9 4 -2 22 -48 39 -102 63 -190 148 -329 285 -467 102 -103 181 -165
275 -217 89 -49 288 -131 385 -158 44 -12 90 -25 103 -29 23 -6 20 -11 -58
-111 -45 -58 -126 -164 -180 -236 -93 -122 -103 -132 -157 -153 -147 -60 -412
-212 -548 -315 -118 -89 -291 -267 -374 -383 -130 -183 -215 -377 -262 -598
-28 -133 -26 -180 10 -216 l29 -29 2347 0 c1590 0 2353 3 2366 10 10 6 26 25
35 42 14 27 14 42 4 112 -65 457 -323 845 -756 1137 -94 63 -372 213 -446 241
-32 11 -58 24 -58 29 0 4 -44 63 -98 131 -53 68 -134 171 -179 230 l-82 107
32 6 c37 8 253 78 300 97 69 28 235 117 297 158 137 93 297 282 377 445 35 70
44 95 74 194 l22 73 51 -8 c28 -5 103 -9 166 -9 145 0 227 25 341 102 93 63
144 116 209 216 59 91 84 151 104 249 51 247 -25 500 -195 648 -62 54 -172
120 -200 120 -41 1 -40 15 4 136 201 540 267 1131 177 1569 -91 440 -364 774
-730 893 -53 17 -220 52 -250 52 -4 0 -1 28 7 63 39 163 -23 428 -138 592 -91
130 -171 171 -256 129z"/>
</g>
</svg>
